<?xml version="1.0" encoding="UTF-8"?>
<!DOCTYPE svg PUBLIC "-//W3C//DTD SVG 1.1//EN" "http://www.w3.org/Graphics/SVG/1.1/DTD/svg11.dtd">
<!-- Creator: CorelDRAW X7.4 EN Portable -->
<svg xmlns="http://www.w3.org/2000/svg" xml:space="preserve" width="6.57348in" height="4.2558in" version="1.1" style="shape-rendering:geometricPrecision; text-rendering:geometricPrecision; image-rendering:optimizeQuality; fill-rule:evenodd; clip-rule:evenodd"
viewBox="0 0 6966 4510"
 xmlns:xlink="http://www.w3.org/1999/xlink">
 <defs>
  <style type="text/css">
   <![CDATA[
    .fil5 {fill:#FEFEFE;fill-rule:nonzero}
    .fil4 {fill:#FCDBD3;fill-rule:nonzero}
    .fil8 {fill:#F26D51;fill-rule:nonzero}
    .fil25 {fill:#EF4D59;fill-rule:nonzero}
    .fil19 {fill:#EF4D59;fill-rule:nonzero}
    .fil26 {fill:#F9F9FC;fill-rule:nonzero}
    .fil16 {fill:#F09DA1;fill-rule:nonzero}
    .fil14 {fill:#ED9A9F;fill-rule:nonzero}
    .fil20 {fill:#E03438;fill-rule:nonzero}
    .fil18 {fill:#E03438;fill-rule:nonzero}
    .fil12 {fill:#ECB549;fill-rule:nonzero}
    .fil6 {fill:#DBABAC;fill-rule:nonzero}
    .fil21 {fill:#DFA745;fill-rule:nonzero}
    .fil23 {fill:#D8A8A9;fill-rule:nonzero}
    .fil10 {fill:#B9DCF4;fill-rule:nonzero}
    .fil11 {fill:#A8D2E9;fill-rule:nonzero}
    .fil24 {fill:#34B990;fill-rule:nonzero}
    .fil1 {fill:#3D81C2;fill-rule:nonzero}
    .fil13 {fill:#39333B;fill-rule:nonzero}
    .fil17 {fill:#343236;fill-rule:nonzero}
    .fil15 {fill:#2C2A2D;fill-rule:nonzero}
    .fil22 {fill:#2C2A2C;fill-rule:nonzero}
    .fil7 {fill:#3A6AB2;fill-rule:nonzero}
    .fil0 {fill:#3B69B1;fill-rule:nonzero}
    .fil2 {fill:#3360AB;fill-rule:nonzero}
    .fil3 {fill:#3E557D;fill-rule:nonzero}
    .fil9 {fill:#364881;fill-rule:nonzero}
   ]]>
  </style>
 </defs>
 <g id="Layer_x0020_1">
  <metadata id="CorelCorpID_0Corel-Layer"/>
  <path class="fil0" d="M6135 4509l-3952 -7c-149,-1 -270,-122 -270,-272l4493 8c0,150 -122,271 -271,271z"/>
  <path class="fil1" d="M6135 4415l-3951 -7c-117,0 -216,-74 -254,-178l-17 0c0,150 121,271 270,272l3952 7c149,0 271,-121 271,-271l-17 0c-38,104 -137,177 -254,177z"/>
  <path class="fil2" d="M4415 4325l-511 -1c-50,0 -91,-40 -90,-91l692 2c-1,50 -41,90 -91,90z"/>
  <path class="fil3" d="M6175 4238l-4031 -7 4 -2433c1,-140 114,-253 254,-253l3525 7c140,0 253,113 252,253l-4 2433z"/>
  <polygon class="fil4" points="5965,4027 2354,4021 2358,1755 5969,1762 "/>
  <path class="fil5" d="M3579 3086c-271,0 -507,152 -627,375 -56,-31 -120,-49 -189,-49 -163,0 -302,100 -361,241 -15,-3 -31,-5 -47,-6l-1 374 1899 3c25,-71 38,-148 38,-227 0,-393 -319,-711 -712,-711z"/>
  <path class="fil5" d="M4735 3086c272,0 507,152 627,375 56,-31 121,-49 190,-49 162,0 302,100 360,241 18,-3 36,-6 54,-6l-1 380 0 0 -1904 -3c-24,-72 -37,-148 -37,-227 0,-393 319,-711 711,-711z"/>
  <path class="fil6" d="M4480 2930l0 -7 -1870 0c-26,0 -46,-20 -46,-45l0 -543c0,-25 20,-46 46,-46l1870 0c25,0 45,21 45,46l0 543c0,25 -20,45 -45,45l0 14c32,0 59,-27 59,-59l0 -543c0,-33 -27,-59 -59,-59l-1870 0c-33,0 -60,26 -60,59l0 543c0,32 27,59 60,59l1870 0 0 -7z"/>
  <polygon class="fil5" points="2742,2510 3853,2510 3853,2497 2742,2497 "/>
  <polygon class="fil5" points="2742,2716 3354,2716 3354,2703 2742,2703 "/>
  <path class="fil5" d="M5604 2709l0 -7 -765 0c-26,0 -47,-20 -47,-46l0 -583c0,-26 21,-46 47,-46l765 0c25,0 46,20 46,46l0 583c0,26 -21,46 -46,46l0 13c32,0 59,-26 59,-59l0 -583c0,-33 -27,-59 -59,-59l-765 0c-33,0 -59,26 -59,59l0 583c0,33 26,59 59,59l765 0 0 -6z"/>
  <path class="fil7" d="M2681 1989c0,29 -24,53 -53,53 -29,0 -53,-24 -53,-53 0,-30 24,-53 53,-53 29,0 53,23 53,53z"/>
  <path class="fil8" d="M2858 1989c0,29 -24,53 -53,53 -29,0 -53,-24 -53,-53 0,-30 24,-53 53,-53 29,0 53,23 53,53z"/>
  <path class="fil6" d="M3035 1989l-7 0c0,25 -20,46 -46,46 -26,0 -47,-21 -47,-46 0,-26 21,-47 47,-47 25,0 46,21 46,47l14 0c0,-33 -27,-60 -60,-60 -33,0 -60,27 -60,60 0,33 27,60 60,60 33,0 60,-27 60,-60l-7 0z"/>
  <path class="fil5" d="M4311 2116l-159 -226 -158 226c0,0 84,692 -76,1521l469 0c-160,-829 -76,-1521 -76,-1521z"/>
  <path class="fil9" d="M3736 1425l-334 372c-31,36 -44,84 -33,130l141 583c5,23 28,38 52,33 18,-4 32,-19 34,-38 13,-113 75,-509 290,-623l-150 -457z"/>
  <path class="fil9" d="M4576 1425l333 372c32,36 44,84 33,130l-140 583c-6,23 -29,38 -52,33 -19,-4 -32,-19 -35,-38 -13,-113 -74,-509 -290,-623l151 -457z"/>
  <path class="fil10" d="M3688 1218c1,59 12,453 156,758 11,24 35,40 62,40l481 0c27,0 51,-16 62,-40 143,-302 155,-690 156,-756 0,-6 0,-12 0,-18 -17,-279 -66,-506 -127,-685l-663 0c-61,180 -110,406 -127,687 0,4 0,9 0,14z"/>
  <path class="fil11" d="M4221 1507l288 317c-17,51 -37,103 -60,152 -11,24 -35,40 -62,40l-180 0 14 -509z"/>
  <path class="fil9" d="M4055 45c-69,91 -163,244 -240,472l663 0c-77,-228 -171,-381 -240,-472 -46,-60 -137,-60 -183,0z"/>
  <path class="fil0" d="M4393 1031c0,136 -111,246 -246,246 -136,0 -247,-110 -247,-246 0,-136 111,-246 247,-246 135,0 246,110 246,246z"/>
  <path class="fil12" d="M4326 1031c0,102 -82,184 -184,184 -102,0 -185,-82 -185,-184 0,-102 83,-185 185,-185 102,0 184,83 184,185z"/>
  <path class="fil5" d="M3965 1084c0,0 106,17 168,-88 42,-71 9,-150 9,-150 0,0 -111,-4 -167,106 0,0 -33,56 -10,132z"/>
  <path class="fil9" d="M4323 2126l-351 0c-47,0 -86,-38 -86,-86l0 -24 523 0 0 24c0,48 -39,86 -86,86z"/>
  <polygon class="fil9" points="4191,2598 4101,2598 4072,1507 4221,1507 "/>
  <polygon class="fil13" points="0,4510 6952,4510 6952,4503 0,4503 "/>
  <polygon class="fil14" points="624,4292 494,4228 654,3976 784,4039 "/>
  <path class="fil13" d="M504 4207l166 80 109 125c21,27 24,64 9,94l-368 -179 84 -120z"/>
  <path class="fil13" d="M680 4300l-13 -68c0,0 -53,-39 -78,27l91 41z"/>
  <polygon class="fil15" points="1319,2564 1252,3309 770,4172 523,4043 967,3130 1146,2560 "/>
  <polygon class="fil14" points="1091,4382 946,4382 967,4180 1112,4180 "/>
  <path class="fil13" d="M946 4359l184 0 153 64c30,15 50,46 50,81l-410 0 23 -145z"/>
  <path class="fil13" d="M1145 4365l-41 -56c0,0 -65,-11 -59,59l100 -3z"/>
  <path class="fil13" d="M1259 2604l-7 705c0,26 -3,52 -9,77l-99 842 -258 0 2 -894 -6 -859 377 129z"/>
  <path class="fil13" d="M1279 1177c0,0 96,-51 187,28 64,56 52,134 47,168 -2,13 -7,25 -15,36l-85 101 -10 -234 -107 -47 -17 -52z"/>
  <path class="fil16" d="M1069 1785l0 0c-49,-26 -67,-88 -41,-137l131 -241 178 97 -131 241c-27,49 -88,67 -137,40z"/>
  <path class="fil16" d="M1258 1643l0 0c-67,-36 -91,-121 -53,-190l122 -225 118 49c41,23 57,127 34,169l-84 155c-27,50 -88,69 -137,42z"/>
  <path class="fil16" d="M1453 1490l-2 72c1,10 -9,16 -17,12l-55 -30 74 -54z"/>
  <path class="fil13" d="M1477 1301c-71,-82 -111,-107 -111,-107 -21,-24 -38,-11 -68,-14 0,0 -69,-38 -128,3 -93,66 -56,204 -56,204l-43 105c114,37 147,-35 147,-35l66 -74 34 -68 47 -38 51 16c0,0 133,89 61,8z"/>
  <path class="fil16" d="M1264 1434c-13,25 -45,34 -69,21 -25,-13 -35,-44 -22,-69 14,-25 45,-35 70,-21 25,13 34,44 21,69z"/>
  <path class="fil13" d="M1407 1579c-46,-29 -100,-10 -100,-10 -18,-37 -22,-87 -17,-110 0,-3 3,-62 37,-140l-51 -28 -26 166 -51 46c-18,22 -21,55 -14,82 5,25 17,47 30,66 22,32 48,42 86,46 82,8 106,-118 106,-118z"/>
  <path class="fil17" d="M1406 1493c-3,6 -11,8 -17,5 -6,-3 -8,-11 -5,-17 4,-6 11,-8 17,-5 6,3 9,11 5,17z"/>
  <path class="fil13" d="M1380 1436l2 2 53 25c6,3 13,1 16,-5 3,-6 0,-13 -5,-16l-53 -26c-6,-3 -13,0 -16,6 -3,5 -1,11 3,14z"/>
  <path class="fil13" d="M1286 1309c0,0 49,80 84,76 0,0 12,-1 19,-20 0,0 62,113 130,71 0,0 17,-11 -18,-26 0,0 72,17 112,-40 40,-58 -21,-104 -51,-109 -30,-6 -29,2 -75,-24 -45,-26 -116,-129 -200,-35l-1 107z"/>
  <path class="fil16" d="M1439 2054c-38,38 -38,99 0,137 38,37 99,37 137,-1 37,-38 37,-99 -1,-136 -38,-38 -99,-38 -136,0z"/>
  <path class="fil16" d="M1579 2057l89 54c8,4 11,14 8,22 -4,7 -11,10 -19,7l-105 -41 27 -42z"/>
  <polygon class="fil16" points="1469,2034 1308,2091 1317,2217 1484,2130 "/>
  <polygon class="fil18" points="1344,2040 1388,2232 1093,2364 1042,2170 "/>
  <path class="fil19" d="M1234 1823c0,0 -28,-95 -55,-118 -19,-17 -88,-58 -124,-67 -11,-3 -22,0 -31,6 -38,30 -143,124 -182,296 -37,167 -24,767 -24,767 162,83 526,-39 526,-39 -36,-285 -47,-582 -110,-845z"/>
  <path class="fil16" d="M1024 1644c0,0 73,161 189,164 8,0 14,-7 12,-15 -6,-23 -21,-71 -58,-112 -51,-56 -97,-77 -143,-37z"/>
  <polygon class="fil16" points="1453,2331 1609,2337 1646,2427 1437,2435 "/>
  <path class="fil16" d="M1792 2331c-12,50 -96,98 -146,96 -51,-1 -83,-40 -80,-91 2,-51 45,-92 96,-90 50,1 148,7 130,85z"/>
  <path class="fil20" d="M1329 2465l-402 -219 -6 195c2,53 47,95 100,95l314 -19 -6 -52z"/>
  <path class="fil19" d="M1146 1839l0 41 2 394 383 18 -2 167 -490 16c-21,-2 -41,-9 -58,-21 -24,-17 -38,-43 -40,-71l-46 -449 251 -95z"/>
  <polygon class="fil21" points="1120,1864 1150,2258 1121,2258 "/>
  <polygon class="fil18" points="1120,1864 1150,2258 1121,2258 "/>
  <path class="fil22" d="M1792 2294l-536 21c-16,0 -30,-13 -30,-29 -1,-16 12,-30 28,-31l536 -21c16,0 30,12 31,29 1,16 -12,30 -29,31z"/>
  <path class="fil22" d="M1783 2267c3,-1 5,-3 7,-6l235 -419c3,-5 1,-12 -4,-15 -6,-3 -13,-1 -16,4l-235 419c-3,6 -1,13 5,16 2,1 5,1 8,1z"/>
  <path class="fil23" d="M2832 801l0 -5 -292 0c-18,0 -33,15 -33,33l0 164c0,18 15,33 33,33l116 0 109 121 0 -117 68 -1c17,-1 32,-16 32,-34l0 -166c0,-18 -15,-33 -33,-33l0 11c12,0 21,10 21,22l0 166c0,12 -9,22 -21,22l-79 2 0 98 -91 -102 -122 0c-12,0 -21,-10 -21,-22l0 -164c0,-12 9,-22 21,-22l292 0 0 -6z"/>
  <path class="fil23" d="M6960 2164l-6 0c0,43 -34,77 -76,77 -41,0 -75,-34 -75,-77 0,-42 34,-76 75,-76 42,0 76,34 76,76l12 0c0,-49 -39,-89 -88,-89 -48,0 -87,40 -88,89 1,50 40,89 88,89 49,0 88,-39 88,-89l-6 0z"/>
  <path class="fil23" d="M376 3147l-6 0c0,30 -24,54 -53,54 -30,0 -53,-24 -53,-54 0,-30 23,-54 53,-54 29,0 53,24 53,54l12 0c0,-37 -29,-67 -65,-67 -37,0 -66,30 -66,67 0,36 29,66 66,66 36,0 65,-30 65,-66l-6 0z"/>
  <polygon class="fil23" points="5229,391 5229,384 5112,384 5112,272 5223,272 5223,391 5229,391 5229,384 5229,391 5236,391 5236,259 5100,259 5100,397 5236,397 5236,391 "/>
  <path class="fil24" d="M395 1155l448 0 0 -451c0,-26 -21,-47 -47,-47l-401 0c-25,0 -46,21 -46,47l0 405c0,25 21,46 46,46z"/>
  <polygon class="fil24" points="843,1075 843,1248 695,1075 "/>
  <path class="fil5" d="M702 838c-25,-24 -65,-24 -90,1l-16 17 -17 -17c-25,-24 -66,-24 -90,1 -25,25 -25,65 0,90l62 61 1 1c10,9 22,15 35,17 19,3 40,-3 55,-18l61 -63c25,-25 24,-65 -1,-90z"/>
  <path class="fil25" d="M6539 918c0,192 -156,347 -347,347 -192,0 -348,-155 -348,-347 0,-192 156,-347 348,-347 191,0 347,155 347,347z"/>
  <path class="fil26" d="M6133 1041c60,1 121,2 176,-2 18,-1 33,-29 12,-38 9,-5 18,-9 22,-19 3,-10 -1,-23 -11,-25 21,5 29,-28 13,-39 8,-7 16,-17 17,-28 2,-11 -2,-24 -12,-29 -7,-4 -15,-4 -22,-4 -25,0 -50,0 -75,0 7,-39 9,-82 -11,-116 -6,-11 -22,-23 -35,-15 -12,7 -9,26 -8,37 2,49 -25,98 -68,121 0,0 3,104 2,157z"/>
  <polygon class="fil26" points="6020,1041 6111,1041 6111,884 6020,884 "/>
  <path class="fil24" d="M6638 3395l-1596 0c-29,0 -52,-23 -52,-51l0 -417c0,-28 23,-51 52,-51l1596 0c29,0 52,23 52,51l0 417c0,28 -23,51 -52,51z"/>
  <polygon class="fil5" points="5187,3082 6252,3082 6252,3065 5187,3065 "/>
  <polygon class="fil5" points="5187,3206 5444,3206 5444,3190 5187,3190 "/>
  <polygon class="fil24" points="5187,3336 5187,3576 5442,3336 "/>
 </g>
</svg>
