<?xml version="1.0" encoding="UTF-8"?>
<!DOCTYPE svg PUBLIC "-//W3C//DTD SVG 1.1//EN" "http://www.w3.org/Graphics/SVG/1.1/DTD/svg11.dtd">
<!-- Creator: CorelDRAW X7.4 EN Portable -->
<svg xmlns="http://www.w3.org/2000/svg" xml:space="preserve" width="7.15568in" height="4.98172in" version="1.1" style="shape-rendering:geometricPrecision; text-rendering:geometricPrecision; image-rendering:optimizeQuality; fill-rule:evenodd; clip-rule:evenodd"
viewBox="0 0 35697 24852"
 xmlns:xlink="http://www.w3.org/1999/xlink">
 <defs>
  <style type="text/css">
   <![CDATA[
    .fil5 {fill:#FEFEFE;fill-rule:nonzero}
    .fil28 {fill:#EF4D59;fill-rule:nonzero}
    .fil19 {fill:#EF4D59;fill-rule:nonzero}
    .fil26 {fill:#EEEEEE;fill-rule:nonzero}
    .fil20 {fill:#E9EEF8;fill-rule:nonzero}
    .fil21 {fill:#E9B295;fill-rule:nonzero}
    .fil23 {fill:#E8A676;fill-rule:nonzero}
    .fil2 {fill:#E6E8F4;fill-rule:nonzero}
    .fil18 {fill:#E4A98A;fill-rule:nonzero}
    .fil0 {fill:#DEE0F0;fill-rule:nonzero}
    .fil1 {fill:#D4D5EB;fill-rule:nonzero}
    .fil3 {fill:#CBCDE7;fill-rule:nonzero}
    .fil15 {fill:#CACBD9;fill-rule:nonzero}
    .fil4 {fill:#B7BEE0;fill-rule:nonzero}
    .fil7 {fill:#A0A7C9;fill-rule:nonzero}
    .fil27 {fill:#9AA3C4;fill-rule:nonzero}
    .fil8 {fill:#77A7D9;fill-rule:nonzero}
    .fil11 {fill:#72A6D8;fill-rule:nonzero}
    .fil6 {fill:#7B8CC0;fill-rule:nonzero}
    .fil9 {fill:#4086C5;fill-rule:nonzero}
    .fil12 {fill:#4284C4;fill-rule:nonzero}
    .fil24 {fill:#5A607B;fill-rule:nonzero}
    .fil14 {fill:#4B4B64;fill-rule:nonzero}
    .fil16 {fill:#47465D;fill-rule:nonzero}
    .fil22 {fill:#3D3B4B;fill-rule:nonzero}
    .fil17 {fill:#3A3F4C;fill-rule:nonzero}
    .fil13 {fill:#363848;fill-rule:nonzero}
    .fil10 {fill:#354F8B;fill-rule:nonzero}
    .fil29 {fill:#354F8B;fill-rule:nonzero}
    .fil25 {fill:#364881;fill-rule:nonzero}
   ]]>
  </style>
 </defs>
 <g id="Layer_x0020_1">
  <metadata id="CorelCorpID_0Corel-Layer"/>
  <path class="fil0" d="M6875 22286c0,0 -5256,-2205 -5134,-6654 123,-4448 5053,-5145 8435,-2398 3382,2746 6641,1934 8393,-387 1752,-2321 2920,-8109 7824,-6151 3656,1461 6110,5382 6903,8916 545,2429 -245,4994 -2150,6597 -62,52 -125,103 -190,154l-24081 -77z"/>
  <path class="fil1" d="M12160 13761c-54,2321 410,7461 6106,3314 5305,-3861 12599,-3859 14151,3685 958,-1498 1280,-3360 879,-5148 -793,-3534 -3247,-7455 -6903,-8916 -4904,-1958 -6072,3129 -7824,5450 -1405,1861 -3779,2752 -6409,1615z"/>
  <path class="fil2" d="M13426 4742l6375 27c850,4 1520,725 1461,1573l-1035 14684c-54,757 -684,1345 -1444,1345l-6481 0c-841,0 -1505,-715 -1443,-1555l1095 -14713c58,-769 700,-1364 1472,-1361z"/>
  <path class="fil3" d="M13426 4742l6375 27c850,4 1520,725 1461,1573l-1035 14684c-54,757 -684,1345 -1444,1345l-6481 0c-841,0 -1505,-715 -1443,-1555l1095 -14713c58,-769 700,-1364 1472,-1361z"/>
  <path class="fil4" d="M12710 4742l6375 27c850,4 1520,725 1460,1573l-1035 14684c-53,757 -683,1345 -1443,1345l-6481 0c-841,0 -1506,-715 -1443,-1555l1095 -14713c57,-769 700,-1364 1472,-1361z"/>
  <polygon class="fil5" points="12228,6087 19518,6087 18642,20093 11324,20147 "/>
  <path class="fil6" d="M14659 20559c-343,0 -622,279 -622,622 0,343 279,622 622,622 343,0 622,-279 622,-622 0,-343 -279,-622 -622,-622zm0 1346c-399,0 -724,-325 -724,-724 0,-399 325,-724 724,-724 399,0 724,325 724,724 0,399 -325,724 -724,724z"/>
  <path class="fil6" d="M16542 5569l-1223 0c-68,0 -124,-56 -124,-124 0,-69 56,-124 124,-124l1223 0c68,0 124,55 124,124 0,68 -56,124 -124,124z"/>
  <path class="fil3" d="M18625 9697l-5918 0c-154,0 -277,-128 -269,-282l79 -1605c7,-144 126,-256 269,-256l5918 0c154,0 277,128 269,282l-79 1605c-7,144 -126,256 -269,256z"/>
  <path class="fil4" d="M16992 9703l1633 0c143,0 261,-112 267,-255l81 -1613c8,-153 -114,-281 -268,-281l-1633 0c-143,0 -260,112 -267,254l-81 1613c-7,153 115,282 268,282z"/>
  <path class="fil6" d="M16441 8099l-3367 0c-22,0 -40,-18 -40,-40 0,-22 18,-41 40,-41l3367 0c22,0 40,19 40,41 0,22 -18,40 -40,40z"/>
  <path class="fil6" d="M16414 8636l-3366 0c-22,0 -40,-18 -40,-40 0,-23 18,-40 40,-40l3366 0c22,0 40,17 40,40 0,22 -18,40 -40,40z"/>
  <path class="fil6" d="M14684 9173l-1663 0c-22,0 -40,-18 -40,-40 0,-22 18,-40 40,-40l1663 0c23,0 41,18 41,40 0,22 -18,40 -41,40z"/>
  <path class="fil3" d="M18415 12732l-5917 0c-154,0 -277,-129 -270,-283l80 -1605c7,-143 125,-256 269,-256l5917 0c155,0 277,129 270,283l-80 1605c-7,143 -125,256 -269,256z"/>
  <path class="fil4" d="M16782 12737l1633 0c143,0 261,-112 268,-255l81 -1613c7,-153 -115,-281 -268,-281l-1633 0c-143,0 -261,112 -268,255l-80 1613c-8,153 114,281 267,281z"/>
  <path class="fil6" d="M16231 11133l-3366 0c-22,0 -40,-18 -40,-40 0,-22 18,-40 40,-40l3366 0c23,0 40,18 40,40 0,22 -17,40 -40,40z"/>
  <path class="fil6" d="M16205 11670l-3367 0c-22,0 -40,-18 -40,-40 0,-22 18,-40 40,-40l3367 0c22,0 40,18 40,40 0,22 -18,40 -40,40z"/>
  <path class="fil6" d="M14475 12207l-1663 0c-22,0 -40,-18 -40,-40 0,-22 18,-40 40,-40l1663 0c22,0 40,18 40,40 0,22 -18,40 -40,40z"/>
  <polygon class="fil7" points="12228,6087 11324,20147 11176,20147 12083,6087 "/>
  <path class="fil5" d="M18428 8682c-25,369 -345,648 -715,622 -369,-25 -648,-345 -622,-714 26,-369 345,-648 715,-623 369,26 648,346 622,715z"/>
  <path class="fil4" d="M17640 8894c-14,-1 -28,-7 -39,-17l-224 -221c-24,-24 -25,-62 -1,-86 23,-23 61,-24 85,0l187 183 429 -345c26,-21 64,-17 84,9 21,26 17,64 -9,84l-471 380c-12,9 -27,14 -41,13z"/>
  <path class="fil5" d="M18271 11717c-26,369 -346,647 -715,622 -369,-26 -648,-346 -622,-715 25,-369 345,-648 714,-622 369,25 648,345 623,715z"/>
  <path class="fil4" d="M17482 11928c-14,-1 -27,-7 -38,-17l-225 -221c-24,-23 -24,-62 -1,-85 24,-24 62,-24 85,-1l187 184 429 -346c26,-21 64,-17 85,9 21,26 17,64 -9,85l-471 379c-12,10 -27,14 -42,13z"/>
  <path class="fil8" d="M4461 17148c0,0 -86,-133 -307,-1027 -222,-893 -802,-1746 -1707,-1429 -904,317 -644,1370 -199,3071 318,1215 -980,2157 731,3101 1037,572 2838,-197 2484,-1926 0,0 -86,-524 -439,-966 -352,-441 -563,-824 -563,-824z"/>
  <path class="fil9" d="M3746 22480c-20,-4 -34,-23 -30,-44 411,-2631 -712,-6166 -724,-6201 -6,-21 5,-43 25,-50 21,-6 43,5 49,26 12,35 1140,3588 726,6237 -3,21 -23,36 -44,32l-2 0z"/>
  <path class="fil9" d="M3383 17624l-6 -2c-20,-9 -30,-31 -21,-51 1,-5 192,-474 264,-871 4,-21 24,-35 45,-32 22,4 36,25 32,46 -73,405 -267,882 -269,886 -8,18 -27,28 -45,24z"/>
  <path class="fil9" d="M3542 18411l-16 -8c-201,-155 -702,-444 -707,-447 -19,-11 -25,-34 -15,-53 11,-19 35,-25 53,-14 21,12 512,294 717,453 17,13 20,37 7,54 -10,13 -25,18 -39,15z"/>
  <path class="fil9" d="M3677 19178l-8 -3c-20,-9 -28,-33 -19,-52l257 -551c9,-19 32,-27 52,-18 19,9 28,32 18,51l-257 551c-8,17 -26,25 -43,22z"/>
  <path class="fil0" d="M8414 8448c0,0 -179,-206 -289,-300 -197,-170 -423,-470 -1147,-249 -56,17 -111,40 -165,63 -64,27 -262,28 -464,-133 -322,-256 -447,-448 -888,-454 -513,-7 -594,632 -992,796 -254,104 -923,207 -1062,253l5007 24z"/>
  <path class="fil0" d="M18194 1002l46 40c0,0 39,-44 89,-99 51,-54 113,-120 158,-157 68,-59 133,-127 218,-180 86,-52 190,-92 344,-92 104,0 230,19 385,66 46,14 92,33 139,53 28,12 61,16 100,17 96,0 232,-34 369,-142 144,-115 242,-212 345,-278 103,-65 211,-104 396,-107l6 0c98,0 171,29 237,77 99,72 180,192 267,312 89,120 186,242 335,304 121,49 323,94 514,134 95,19 187,37 262,53 75,15 135,29 159,37l19 -58 0 -62 -4389 20 1 62 46 40 -46 -40 0 61 4388 -20c30,0 56,-22 61,-52 4,-29 -13,-58 -42,-68 -36,-12 -95,-25 -172,-41 -114,-23 -263,-52 -404,-83 -141,-31 -274,-65 -350,-97 -148,-59 -251,-221 -369,-382 -60,-80 -125,-159 -208,-219 -82,-61 -185,-101 -309,-101l-8 0c-201,2 -341,50 -460,127 -119,76 -217,175 -356,284 -114,91 -224,116 -292,116 -27,0 -48,-5 -52,-7 -48,-21 -98,-41 -151,-58 -164,-50 -302,-71 -421,-71 -175,0 -307,48 -409,111 -101,62 -172,138 -234,190 -102,89 -258,268 -259,270 -16,18 -19,44 -9,66 10,21 32,35 56,35l0 -61z"/>
  <path class="fil0" d="M26004 4009c0,0 275,-316 444,-461 304,-262 652,-723 1766,-383 87,26 171,61 254,97 99,41 403,43 714,-205 496,-393 689,-690 1368,-699 789,-11 913,973 1527,1225 390,161 1420,320 1633,391l-7706 35z"/>
  <path class="fil10" d="M9877 4636c143,-172 229,-392 229,-632 0,-546 -446,-992 -992,-992l-2149 0c-545,0 -992,446 -992,992 0,545 447,992 992,992l2149 0c159,0 309,-39 443,-106l497 272 -177 -526z"/>
  <path class="fil5" d="M8565 4004c0,119 97,216 216,216 120,0 216,-97 216,-216 0,-120 -96,-216 -216,-216 -119,0 -216,96 -216,216z"/>
  <path class="fil5" d="M7823 4004c0,119 97,216 217,216 119,0 216,-97 216,-216 0,-120 -97,-216 -216,-216 -120,0 -217,96 -217,216z"/>
  <path class="fil5" d="M7082 4004c0,119 97,216 216,216 119,0 216,-97 216,-216 0,-120 -97,-216 -216,-216 -119,0 -216,96 -216,216z"/>
  <path class="fil11" d="M27976 19952c-68,4 -1791,-203 -1869,-1805 -79,-1603 1020,-1999 731,-3783 -290,-1784 -1047,-2296 651,-3598 0,0 758,-524 793,-1260 42,-880 1562,-1901 2581,-1314 1019,587 780,1494 -93,2962 -873,1468 -32,1724 136,2199 168,474 557,972 -334,2107 -891,1134 170,2519 -588,3605 0,0 -665,804 -2008,887z"/>
  <path class="fil12" d="M28245 22407c37,-9 61,-46 54,-84 -926,-4890 961,-11559 980,-11626 11,-39 -11,-79 -50,-90 -38,-11 -79,11 -90,50 -19,67 -1915,6769 -983,11693 7,40 46,66 85,58l4 -1z"/>
  <path class="fil12" d="M28632 13315l12 -5c36,-16 53,-59 36,-96 -4,-8 -388,-873 -546,-1610 -8,-40 -47,-65 -86,-56 -40,8 -65,47 -56,86 161,753 552,1631 556,1640 14,32 50,49 84,41z"/>
  <path class="fil12" d="M28383 14794l28 -14c366,-303 1286,-872 1295,-878 34,-21 45,-66 24,-100 -21,-34 -66,-45 -100,-24 -38,24 -938,581 -1312,890 -30,25 -35,71 -9,102 19,22 48,31 74,24z"/>
  <path class="fil12" d="M28176 16235l15 -6c36,-18 51,-62 32,-98l-512 -1013c-19,-35 -62,-50 -98,-32 -36,18 -50,62 -32,98l513 1013c15,31 50,46 82,38z"/>
  <path class="fil10" d="M32112 20585c-64,50 -641,-995 -775,-2323 0,0 -65,-653 555,-321 0,0 -642,-2856 1066,-2643 295,37 463,103 632,289 230,252 356,658 85,1242 -542,1168 -1018,1622 -785,2241 233,618 154,795 -778,1515z"/>
  <path class="fil11" d="M32279 22444c34,-7 55,-40 48,-74 -393,-1920 173,-5154 245,-5296 20,-28 13,-65 -15,-86 -28,-20 -69,-12 -89,16 -117,163 -646,3529 -264,5391 7,34 41,56 75,49z"/>
  <path class="fil13" d="M34 22437l35630 0c18,0 33,-16 33,-34 0,-19 -15,-34 -33,-34l-35630 0c-19,0 -34,15 -34,34 0,18 15,34 34,34z"/>
  <polygon class="fil14" points="21990,16313 21765,17209 24468,17354 24377,16232 "/>
  <polygon class="fil14" points="23101,16896 22314,19553 22330,23567 21370,23587 21184,19492 21826,16967 "/>
  <polygon class="fil15" points="22823,17834 22989,17274 "/>
  <polygon class="fil16" points="22989,17274 22989,17274 22989,17274 "/>
  <polygon class="fil16" points="22823,17834 22365,17215 22989,17274 22989,17274 "/>
  <polygon class="fil14" points="24462,17171 24644,19664 25404,23778 24454,23973 23536,19776 23219,16901 "/>
  <path class="fil17" d="M21643 23574l523 -3 14 749 -1487 10c11,-118 90,-211 205,-239l736 -180 9 -337z"/>
  <polygon class="fil4" points="22180,24320 20693,24330 20694,24446 22181,24436 "/>
  <path class="fil5" d="M22009 23884c0,63 -51,115 -114,115 -63,1 -114,-50 -115,-113 0,-63 51,-115 114,-115 63,0 114,50 115,113z"/>
  <path class="fil17" d="M24729 23869l518 -68 107 741 -1473 196c-5,-118 62,-220 173,-263l707 -270 -32 -336z"/>
  <polygon class="fil4" points="25354,24542 23881,24738 23896,24852 25369,24657 "/>
  <path class="fil5" d="M25130 24131c8,63 -36,120 -98,128 -63,8 -120,-35 -128,-98 -9,-62 35,-120 98,-128 62,-8 119,36 128,98z"/>
  <path class="fil10" d="M20897 14935l-31 -4 -2442 -362 119 -798 2187 325c435,-661 1100,-1434 1100,-1434 -5,10 24,35 0,0l769 80c35,194 -135,196 -1338,2013 -80,122 -220,190 -364,180z"/>
  <path class="fil10" d="M23195 12454l79 13c349,58 630,318 713,661l559 3182c-1188,648 -2691,7 -2691,7l-289 -2968c-41,-327 130,-644 426,-790l1203 -105z"/>
  <polygon class="fil18" points="22927,12737 22258,12681 22366,11163 23036,11218 "/>
  <path class="fil18" d="M22094 12550l1022 -90c0,0 -8,597 -624,589 -564,-8 -398,-499 -398,-499z"/>
  <path class="fil5" d="M18463 14168c-40,236 -263,395 -500,355 -236,-40 -395,-264 -355,-500 40,-236 264,-395 500,-355 236,40 395,264 355,500z"/>
  <path class="fil5" d="M18702 14428l-445 -75c-116,-20 -195,-131 -176,-247 20,-117 131,-196 247,-176l445 75c116,20 195,131 176,247 -20,117 -131,196 -247,176z"/>
  <path class="fil19" d="M19708 14542c-48,687 -643,1205 -1330,1158 -687,-48 -1205,-643 -1158,-1330 48,-687 643,-1206 1330,-1158 687,47 1205,643 1158,1330z"/>
  <path class="fil20" d="M18241 14935c-26,-1 -51,-12 -71,-31l-419 -412c-44,-43 -44,-114 -1,-158 43,-44 114,-45 158,-2l348 342 798 -643c48,-39 119,-31 158,17 39,48 31,119 -17,157l-876 706c-23,18 -51,26 -78,24z"/>
  <path class="fil21" d="M22137 12186l0 0c-455,-32 -798,-426 -766,-880l70 -1023 1646 114 -71 1023c-31,454 -425,797 -879,766z"/>
  <path class="fil22" d="M23027 11147l-235 -11c-64,-3 -109,-64 -94,-126 41,-168 95,-457 -14,-499 -154,-59 -1005,111 -1279,-124 -384,-331 -65,-804 300,-803 364,1 286,418 710,435 424,17 1076,-108 732,998l-120 130z"/>
  <path class="fil21" d="M23314 11212c-10,142 -134,250 -277,240 -143,-9 -250,-133 -240,-276 10,-143 133,-251 276,-241 143,10 251,134 241,277z"/>
  <path class="fil23" d="M20098 15234c-16,239 -223,420 -462,403 -239,-16 -420,-224 -403,-463 17,-239 224,-419 462,-402 239,16 420,223 403,462z"/>
  <path class="fil23" d="M20361 15470l-450 -31c-118,-9 -207,-111 -199,-229 8,-117 111,-207 228,-199l451 31c117,8 207,111 198,229 -8,117 -111,207 -228,199z"/>
  <path class="fil10" d="M20115 15632l1 -807 2224 4 764 -1813c92,-203 331,-292 534,-200 203,93 292,332 200,535l-872 2049c-66,144 -210,236 -368,236l-2483 -4z"/>
  <polygon class="fil24" points="21246,23587 22449,23587 22449,23167 21246,23167 "/>
  <polygon class="fil24" points="24272,23609 25453,23377 25533,23789 24352,24020 "/>
  <path class="fil5" d="M21531 11456l710 34c0,0 -42,271 -424,230 -302,-33 -286,-264 -286,-264z"/>
  <path class="fil25" d="M21789 15634l717 2c202,-13 380,-135 465,-318l798 -1806c-309,1053 -716,2126 -716,2126 -50,137 -182,226 -327,221l-919 -37 -18 -188z"/>
  <path class="fil26" d="M12024 17694c-130,0 -243,-96 -260,-229l-180 -1358 12 -195c36,-82 112,-143 207,-155l5306 -704c12,-1 24,-2 35,-2 130,0 244,96 261,229l187 1412c19,145 -82,277 -226,296l-5307 704c-11,1 -23,2 -35,2z"/>
  <path class="fil27" d="M11584 16107l-8 -54c-6,-50 1,-98 20,-141l-12 195z"/>
  <path class="fil3" d="M16987 16349l-5306 703c-145,20 -277,-82 -296,-226l-188 -1413c-19,-144 83,-277 227,-296l5306 -703c145,-19 277,82 296,227l187 1412c20,144 -82,277 -226,296z"/>
  <path class="fil6" d="M11737 15576c-18,0 -34,-13 -36,-31 -3,-21 11,-39 31,-42l3039 -402c21,-5 39,11 41,31 3,20 -11,38 -31,41l-3039 403 -5 0z"/>
  <path class="fil6" d="M11801 16061c-18,0 -34,-13 -36,-32 -3,-20 12,-38 31,-41l3039 -403c22,-4 39,12 41,32 3,20 -11,38 -31,41l-3039 403 -5 0z"/>
  <path class="fil6" d="M11866 16546c-19,0 -34,-14 -37,-32 -2,-20 12,-38 32,-41l1503 -201c22,-4 39,11 42,31 2,20 -12,39 -32,41l-1503 201 -5 1z"/>
  <path class="fil17" d="M9678 23093l-476 -36 -70 782 1356 107 8 -105c-2,-108 -69,-197 -171,-230l-660 -210 13 -308z"/>
  <path class="fil17" d="M3512 22807l-48 -475 -782 67 130 1354 105 -10c106,-22 183,-102 197,-209l93 -686 305 -41z"/>
  <path class="fil10" d="M5475 19266l863 2782 -3010 179 90 717 3670 -124c326,-10 573,-259 507,-639l-206 -2067 1941 -30 -336 3069 836 30 820 -3449c101,-423 -214,-830 -648,-841l-1975 -49 -2552 422z"/>
  <polygon class="fil18" points="6714,16020 7456,16177 7771,14603 7036,14449 "/>
  <path class="fil21" d="M7297 15425l0 0c415,87 822,-179 909,-595l196 -934 -1504 -315 -196 934c-87,416 180,823 595,910z"/>
  <path class="fil22" d="M7852 14300l-144 687c-57,274 -314,453 -573,398l-136 -28c-453,-95 -739,-561 -639,-1041l131 -621 1413 296 -52 309z"/>
  <path class="fil22" d="M7803 14198c0,0 353,93 575,97 290,4 470,-329 289,-556l-26 -30c-221,-240 -607,-120 -605,-96 2,24 -233,585 -233,585z"/>
  <path class="fil22" d="M8259 13800c0,0 -433,-634 -1180,-447 0,0 -287,-16 -588,342l1257 599 511 -494z"/>
  <path class="fil21" d="M7544 14603c-25,122 52,241 174,266 122,26 241,-52 266,-174 26,-121 -52,-240 -174,-266 -121,-25 -240,53 -266,174z"/>
  <path class="fil22" d="M7216 13260c-82,393 -467,644 -860,562 -393,-82 -645,-467 -562,-860 82,-393 467,-645 860,-562 393,82 644,467 562,860z"/>
  <path class="fil19" d="M8048 18819c-277,-450 -145,-1490 -32,-2114 56,-307 -83,-616 -347,-781l-860 -255c-213,-73 -492,174 -643,341 -1356,1490 -834,3387 -834,3387 462,113 1031,108 1341,69l0 1 11 -2 17 -2c827,-90 1347,-644 1347,-644z"/>
  <path class="fil21" d="M11277 16383c151,208 441,254 649,104 208,-150 255,-441 104,-649 -150,-208 -441,-254 -648,-104 -208,151 -255,441 -105,649z"/>
  <path class="fil21" d="M11172 16746l391 -284c103,-74 126,-218 52,-320 -74,-102 -218,-125 -321,-51l-391 283c-102,74 -125,218 -51,320 74,102 218,126 320,52z"/>
  <path class="fil28" d="M11487 16754l-457 -733 -2019 1263 -1268 -1291c-198,-132 -466,-77 -598,122 -132,198 -78,467 121,598l1499 1445c141,93 324,96 468,6l2254 -1410z"/>
  <path class="fil29" d="M7389 20114l0 0zm0 0l814 -457 -44 211 1171 216 -1941 30zm1941 -30l0 0z"/>
  <path class="fil5" d="M25325 8574l-67 -192 -68 192c-56,163 -191,300 -374,381 183,81 318,218 374,381l68 193 67 -193c57,-163 192,-300 374,-381 -182,-81 -317,-218 -374,-381z"/>
  <path class="fil5" d="M5132 14172l-44 -127 -45 127c-37,107 -126,198 -246,251 120,54 209,144 246,252l45 127 44 -127c38,-108 126,-198 247,-252 -121,-53 -209,-144 -247,-251z"/>
 </g>
</svg>
